<?xml version="1.0" encoding="utf-8"?>
<!DOCTYPE svg PUBLIC "-//W3C//DTD SVG 1.1//EN" "http://www.w3.org/Graphics/SVG/1.1/DTD/svg11.dtd">
<svg version="1.1" xmlns="http://www.w3.org/2000/svg" xmlns:xlink="http://www.w3.org/1999/xlink" width="28" height="28" viewBox="0 0 28 28">
<path fill="#444444" d="M3.866 8.996l9.253 4.468c0.241 0.115 0.563 0.175 0.88 0.175s0.64-0.060 0.88-0.175l9.253-4.468c0.487-0.235 0.487-0.618 0-0.853l-9.253-4.468c-0.241-0.115-0.563-0.175-0.88-0.175s-0.64 0.060-0.88 0.175l-9.253 4.468c-0.487 0.235-0.487 0.618 0 0.853zM24.134 13.573c0 0-1.69-0.815-1.914-0.924s-0.284-0.104-0.52 0.005-6.825 3.292-6.825 3.292c-0.246 0.115-0.563 0.175-0.88 0.175s-0.64-0.060-0.88-0.175c0 0-6.415-3.095-6.716-3.243-0.328-0.159-0.421-0.159-0.716-0.016-0.306 0.148-1.827 0.88-1.827 0.88-0.487 0.235-0.487 0.618 0 0.853l9.253 4.468c0.241 0.115 0.563 0.175 0.88 0.175s0.64-0.060 0.88-0.175l9.253-4.468c0.498-0.23 0.498-0.613 0.011-0.848zM24.134 19.004c0 0-1.69-0.815-1.914-0.924s-0.284-0.104-0.52 0.005-6.82 3.298-6.82 3.298c-0.246 0.115-0.563 0.175-0.88 0.175s-0.64-0.060-0.88-0.175c0 0-6.415-3.095-6.716-3.243-0.328-0.159-0.421-0.159-0.716-0.016-0.306 0.148-1.827 0.88-1.827 0.88-0.487 0.235-0.487 0.618 0 0.853l9.253 4.468c0.241 0.12 0.563 0.175 0.88 0.175s0.64-0.060 0.88-0.175l9.253-4.468c0.492-0.235 0.492-0.618 0.005-0.853z"></path>
</svg>
