<?xml version="1.0" encoding="utf-8"?>
<!DOCTYPE svg PUBLIC "-//W3C//DTD SVG 1.1//EN" "http://www.w3.org/Graphics/SVG/1.1/DTD/svg11.dtd">
<svg version="1.1" xmlns="http://www.w3.org/2000/svg" xmlns:xlink="http://www.w3.org/1999/xlink" width="448" height="448" viewBox="0 0 448 448">
<path fill="rgb(68, 68, 68)" d="M419.128 433.664l-185.395-427.548c-1.624-3.753-5.335-6.176-9.425-6.176s-7.801 2.423-9.411 6.162l-186.025 427.548c-1.386 3.207-1.064 6.862 0.84 9.76 1.904 2.885 5.125 4.649 8.584 4.649h157.697v-93.377l-56.001-18.667c-7.744 0-14.004-6.26-14.004-14.004s6.26-14.004 14.004-14.004l56.001 18.667v-88.672c0-7.744 6.26-14.004 14.004-14.004h28.007c7.744 0 14.004 6.26 14.004 14.004v21.006l41.997-21.006c7.744 0 14.004 6.26 14.004 14.004s-6.26 14.004-14.004 14.004l-41.997 20.992v49.013l70.005-42.011c7.744 0 14.004 6.26 14.004 14.004s-6.26 14.004-14.004 14.004l-70.005 42.011v84.036h157.697c3.473 0 6.694-1.75 8.584-4.649 1.904-2.885 2.198-6.568 0.84-9.747z"></path>
</svg>
