<?xml version="1.0" encoding="utf-8"?>
<!DOCTYPE svg PUBLIC "-//W3C//DTD SVG 1.1//EN" "http://www.w3.org/Graphics/SVG/1.1/DTD/svg11.dtd">
<svg version="1.1" xmlns="http://www.w3.org/2000/svg" xmlns:xlink="http://www.w3.org/1999/xlink" width="384" height="448" viewBox="0 0 384 448">
<path fill="rgb(68, 68, 68)" d="M384 224q0 62.75-36.625 112.875t-94.625 69.375q-6.75 1.25-9.875-1.75t-3.125-7.5v-52.75q0-24.25-13-35.5 14.25-1.5 25.625-4.5t23.5-9.75 20.25-16.625 13.25-26.25 5.125-37.625q0-30.25-19.75-51.5 9.25-22.75-2-51-7-2.25-20.25 2.75t-23 11l-9.5 6q-23.25-6.5-48-6.5t-48 6.5q-4-2.75-10.625-6.75t-20.875-9.625-21.5-3.375q-11 28.25-1.75 51-19.75 21.25-19.75 51.5 0 21.25 5.125 37.5t13.125 26.25 20.125 16.75 23.5 9.75 25.625 4.5q-10 9-12.25 25.75-5.25 2.5-11.25 3.75t-14.25 1.25-16.375-5.375-13.875-15.625q-4.75-8-12.125-13t-12.375-6l-5-0.75q-5.25 0-7.25 1.125t-1.25 2.875 2.25 3.5 3.25 3l1.75 1.25q5.5 2.5 10.875 9.5t7.875 12.75l2.5 5.75q3.25 9.5 11 15.375t16.75 7.5 17.375 1.75 13.875-0.875l5.75-1q0 9.5 0.125 22.25t0.125 13.5q0 4.5-3.25 7.5t-10 1.75q-58-19.25-94.625-69.375t-36.625-112.875q0-52.25 25.75-96.375t69.875-69.875 96.375-25.75 96.375 25.75 69.875 69.875 25.75 96.375z"></path>
</svg>
