<?xml version="1.0" encoding="utf-8"?>
<!DOCTYPE svg PUBLIC "-//W3C//DTD SVG 1.1//EN" "http://www.w3.org/Graphics/SVG/1.1/DTD/svg11.dtd">
<svg version="1.1" xmlns="http://www.w3.org/2000/svg" xmlns:xlink="http://www.w3.org/1999/xlink" width="26" height="28" viewBox="0 0 26 28">
<path fill="#444444" d="M13.688 22.224q0-0.328-0.070-0.633t-0.148-0.563-0.273-0.539-0.328-0.477-0.414-0.461-0.43-0.398-0.5-0.398-0.484-0.359-0.516-0.359-0.477-0.328q-0.266-0.031-0.781-0.031-0.844 0-1.656 0.109t-1.687 0.391-1.531 0.719-1.078 1.172-0.422 1.672q0 1.062 0.555 1.898t1.453 1.313 1.883 0.711 1.984 0.234q0.922 0 1.758-0.195t1.57-0.609 1.164-1.148 0.43-1.719zM11.813 8.755q0-0.938-0.258-1.992t-0.734-2.039-1.313-1.625-1.867-0.641q-1.453 0-2.25 1.078t-0.797 2.578q0 0.734 0.18 1.547t0.555 1.625 0.875 1.461 1.219 1.055 1.516 0.406q1.516 0 2.195-0.945t0.68-2.508zM9.766 1.333h6.828l-2.109 1.234h-2.109q1.109 0.703 1.719 1.969t0.609 2.641q0 1.156-0.359 2.055t-0.875 1.445-1.031 1.008-0.875 0.953-0.359 1.055q0 0.406 0.258 0.797t0.672 0.75 0.914 0.75 1 0.867 0.914 1.031 0.672 1.328 0.258 1.664q0 2.5-2.188 4.406-2.375 2.047-6.563 2.047-0.922 0-1.867-0.156t-1.906-0.523-1.695-0.906-1.203-1.391-0.469-1.898q0-0.953 0.578-2.109 0.5-1 1.5-1.727t2.266-1.109 2.422-0.563 2.344-0.211q-1-1.297-1-2.328 0-0.187 0.031-0.367t0.078-0.305 0.125-0.336 0.109-0.336q-0.625 0.078-1.094 0.078-2.328 0-3.992-1.531t-1.664-3.844q0-2.188 1.484-3.914t3.656-2.211q1.469-0.312 2.922-0.312zM26 5.333v2h-4v4h-2v-4h-4v-2h4v-4h2v4h4z"></path>
</svg>
