<?xml version="1.0" encoding="utf-8"?>
<!DOCTYPE svg PUBLIC "-//W3C//DTD SVG 1.1//EN" "http://www.w3.org/Graphics/SVG/1.1/DTD/svg11.dtd">
<svg version="1.1" xmlns="http://www.w3.org/2000/svg" xmlns:xlink="http://www.w3.org/1999/xlink" width="448" height="448" viewBox="0 0 448 448">
<path d="M300.464 221.972c-2.513-48.941-38.853-78.376-82.737-78.376h-1.653c-50.64 0-78.721 39.821-78.721 85.060 0 50.642 33.971 82.635 78.53 82.635 49.663 0 82.328-36.387 84.691-79.421l-0.111-9.898zM216.32 99.787c33.837 0 65.655 14.959 89.009 38.38v0.087c0-11.239 7.567-19.716 18.069-19.716l2.661-0.018c16.423 0 19.806 15.547 19.806 20.466l0.075 174.796c-1.162 11.448 11.813 17.357 19.002 10.010 28.072-28.846 61.645-148.29-17.45-217.479-73.713-64.521-172.622-53.893-225.224-17.633-55.924 38.567-91.7 123.936-56.945 204.113 37.892 87.444 146.311 113.526 210.752 87.506 32.63-13.169 47.696 30.936 13.808 45.35-51.199 21.806-193.725 19.606-260.3-95.726-44.983-77.871-42.6-214.883 76.711-285.866 91.261-54.319 211.592-39.284 284.148 36.489 75.843 79.215 71.41 227.557-2.554 285.221-33.52 26.206-83.306 0.711-82.992-37.467l-0.342-12.48c-23.337 23.156-54.4 36.668-88.236 36.668-66.853 0-125.68-58.808-125.68-125.673 0.001-67.508 58.827-127.026 125.681-127.026v0z"></path>
</svg>
