<?xml version="1.0" encoding="utf-8"?>
<!DOCTYPE svg PUBLIC "-//W3C//DTD SVG 1.1//EN" "http://www.w3.org/Graphics/SVG/1.1/DTD/svg11.dtd">
<svg version="1.1" xmlns="http://www.w3.org/2000/svg" xmlns:xlink="http://www.w3.org/1999/xlink" width="260" height="448" viewBox="0 0 260 448">
<path d="M129.85 67.761c26.403 0 47.873 21.473 47.873 47.876 0 26.375-21.47 47.851-47.873 47.851-26.375 0-47.872-21.476-47.872-47.851 0-26.402 21.497-47.876 47.872-47.876v0 0zM129.85 231.222c63.776 0 115.62-51.845 115.62-115.585 0-63.77-51.844-115.637-115.62-115.637-63.761 0-115.619 51.867-115.619 115.637 0 63.74 51.858 115.585 115.619 115.585v0zM176.629 325.542c23.537-5.364 46.237-14.674 67.14-27.811 15.823-9.972 20.592-30.885 10.621-46.707-9.958-15.858-30.861-20.628-46.711-10.656-47.359 29.785-108.337 29.772-155.669 0-15.849-9.972-36.752-5.202-46.697 10.656-9.972 15.833-5.215 36.736 10.607 46.707 20.903 13.12 43.602 22.446 67.14 27.811l-64.641 64.637c-13.214 13.228-13.214 34.671 0.014 47.899 6.621 6.608 15.282 9.918 23.943 9.918 8.674 0 17.349-3.31 23.97-9.918l63.492-63.518 63.546 63.518c13.215 13.229 34.658 13.229 47.886 0 13.242-13.228 13.242-34.681 0-47.899l-64.64-64.637z"></path>
</svg>
