<?xml version="1.0" encoding="utf-8"?>
<!DOCTYPE svg PUBLIC "-//W3C//DTD SVG 1.1//EN" "http://www.w3.org/Graphics/SVG/1.1/DTD/svg11.dtd">
<svg version="1.1" xmlns="http://www.w3.org/2000/svg" xmlns:xlink="http://www.w3.org/1999/xlink" width="448" height="448" viewBox="0 0 448 448">
<path d="M130.694 17.154c-22.298 0.249-55.255 0.205-77.53 0l-0.129 67.477h77.592l0.066-67.477z"></path>
<path d="M318.768 103.061l10.769 211.644c15.718-0.302 41.728-0.218 57.446-0.067l10.64-212.338 0.196-85.213h-79.091l0.040 85.974z"></path>
<path d="M249.361 17.154l-78.828-0.045 0.106 104.092-117.911-0.022 0.174 153.059 0.022 153.233h78.268l-0.218-252.266 39.514-0.022-0.089 181.098c0 9.142 0.543 18.256 1.738 27.332 3.255 26.051 14.392 39.492 38.603 44.289 26.683 5.296 57.122 2.561 83.888-0.302l0.106-53.929c-1.801 0.045-17.999 0.045-19.777 0-17.345-0.587-25.358-7.924-25.446-25.312l-0.218-173.197 45.419 0.022 0.022-53.733-45.481-0.022 0.106-104.275z"></path>
<path d="M318.791 351.702h78.722v75.68h-78.722v-75.68z"></path>
</svg>
