<?xml version="1.0" encoding="utf-8"?>
<!DOCTYPE svg PUBLIC "-//W3C//DTD SVG 1.1//EN" "http://www.w3.org/Graphics/SVG/1.1/DTD/svg11.dtd">
<svg version="1.1" xmlns="http://www.w3.org/2000/svg" xmlns:xlink="http://www.w3.org/1999/xlink" width="28" height="28" viewBox="0 0 28 28">
<path fill="#444444" d="M15.473 12.017l1.91 0.923 2.883-0.923v-1.673c0-3.447-2.81-6.251-6.265-6.251-3.454 0-6.264 2.804-6.264 6.251v8.778c0 0.809-0.661 1.469-1.471 1.469s-1.471-0.659-1.471-1.469v-3.675h-4.794v3.675c0 3.447 2.81 6.251 6.265 6.251s6.265-2.804 6.265-6.251v-8.778c0-0.809 0.661-1.469 1.471-1.469 0.812 0 1.473 0.659 1.473 1.469v1.673zM23.208 15.447v3.675c0 0.809-0.661 1.469-1.471 1.469-0.812 0-1.473-0.659-1.473-1.469v-3.749l-2.883 0.923-1.91-0.923v3.749c0 3.447 2.81 6.251 6.265 6.251 3.454 0 6.264-2.804 6.264-6.251v-3.675h-4.792z"></path>
</svg>
