<?xml version="1.0" encoding="utf-8"?>
<!DOCTYPE svg PUBLIC "-//W3C//DTD SVG 1.1//EN" "http://www.w3.org/Graphics/SVG/1.1/DTD/svg11.dtd">
<svg version="1.1" xmlns="http://www.w3.org/2000/svg" xmlns:xlink="http://www.w3.org/1999/xlink" width="448" height="448" viewBox="0 0 448 448">
<path d="M425.326 326.807c-0.29-2.479-2.388-3.854-3.908-4.27-3.854-1.068-7.798-0.181-19.233-5.229-9.228-4.162-51.982-24.788-110.913-31.591l42.664-242.922c1.9-10.892 1.809-19.667-1.628-25.222-5.012-8.16-16.031-10.386-28.696-9.318-9.897 0.905-17.731 4.523-19.36 5.645-2.081 1.393-2.75 3.619-2.642 5.211 0.416 4.578 3.999 8.142 1.050 25.783-0.597 3.763-14.547 81.475-26.308 147.28-31.175 18.745-72.681 27.593-81.185 16.338-4.125-5.609-3.202-16.103 0.724-31.79 0.905-3.492 19.179-72.916 24.372-92.91 9.77-38.087 2.352-73.007-37.092-76.535-34.016-3.076-66.493 16.917-76.264 27.321-7.056 7.509-4.704 16.573 1.628 27.52 4.976 8.558 11.616 14.113 13.299 15.126 2.099 1.267 4.777 1.303 5.79 0.181 11.399-12.846 32.134-22.472 39.335-16.538 6.333 5.247 3.89 15.018 1.448 24.426 0 0-22.219 83.339-31.193 118.078-6.622 25.62-0.126 48.943 18.582 60.034 13.932 8.594 34.631 7.889 50.951 5.79 35.463-4.306 56.27-19.251 59.636-21.839l-6.55 36.549c0 0-40.059 3.637-72.862 23.25-43.117 25.837-60.522 84.569-32.93 114.857 27.611 30.289 75.866 18.799 95.479 5.573 18.907-12.702 43.551-39.462 54.696-100.165 65.064 3.329 81.963 37.037 109.701 38.231 19.903 0.851 33.925-18.383 31.41-38.774v-0.091zM204.043 384.959c-9.228 5.374-18.636 6.079-24.426-0.543-6.080-7.020-7.853-45.234 52.742-56.633 0 0-9.553 46.319-28.316 57.175v0z"></path>
</svg>
